<svg xmlns="http://www.w3.org/2000/svg" viewBox="0 0 30 30"><path fill="#80C785" d="M3.3 14.7v.6c0 4.4 2.1 7.9 6.4 10.3 1.6.8 3.2 1.2 5 1.2h.7c4.6 0 8.1-2.4 10.5-7.1.6-1.5.8-3 .8-4.4v-.6c0-3.7-1.7-6.8-5-9.3-2-1.4-4.3-2.1-6.8-2.1-5 0-8.7 2.6-11 7.8-.4 1.3-.6 2.5-.6 3.6zM15 .2c3.8 0 7.2 1.4 10.3 4.3 2.9 3.1 4.4 6.6 4.4 10.4 0 5.5-2.6 9.9-7.8 13-2.3 1.1-4.4 1.7-6.5 1.7h-.9c-3.9 0-7.6-1.9-11-5.6-2.1-3-3.1-6-3.1-9.2C.4 10 2.5 6 6.7 2.7 9.3 1.1 12.1.2 15 .2zm7 16c.1-.6.6-1 1.2-1 .6.1 1 .6 1 1.2-.4 3.4-2.4 5.7-4.8 6.9-1.3.6-2.8 1-4.3 1s-3-.3-4.3-1c-2.5-1.2-4.4-3.5-4.9-6.9-.1-.6.4-1.1 1-1.2.6-.1 1.2.4 1.2 1 .3 2.5 1.8 4.3 3.6 5.2 1 .5 2.2.7 3.3.7 1.2 0 2.3-.2 3.3-.7 1.9-1 3.3-2.7 3.7-5.2z"/></svg>